<svg xmlns="http://www.w3.org/2000/svg" width="1000" height="610" viewBox="0 0 1000 610">
<rect width="100%" height="100%" fill="white"/>
<text x="500.0" y="36" text-anchor="middle" font-family="Arial, 'Noto Sans CJK SC', 'PingFang SC', 'Microsoft YaHei', sans-serif" font-size="26" font-weight="700">R-015：support-only / query-only shuffle 均未破坏 POIL</text>
<line x1="90" y1="80" x2="90" y2="455" stroke="#333"/>
<line x1="90" y1="455" x2="965" y2="455" stroke="#333"/>
<line x1="85" y1="455.0" x2="90" y2="455.0" stroke="#333"/>
<line x1="90" y1="455.0" x2="965" y2="455.0" stroke="#eee"/>
<text x="80" y="459.0" text-anchor="end" font-family="Arial, 'Noto Sans CJK SC', 'PingFang SC', 'Microsoft YaHei', sans-serif" font-size="14">0.00</text>
<line x1="85" y1="380.0" x2="90" y2="380.0" stroke="#333"/>
<line x1="90" y1="380.0" x2="965" y2="380.0" stroke="#eee"/>
<text x="80" y="384.0" text-anchor="end" font-family="Arial, 'Noto Sans CJK SC', 'PingFang SC', 'Microsoft YaHei', sans-serif" font-size="14">0.22</text>
<line x1="85" y1="305.0" x2="90" y2="305.0" stroke="#333"/>
<line x1="90" y1="305.0" x2="965" y2="305.0" stroke="#eee"/>
<text x="80" y="309.0" text-anchor="end" font-family="Arial, 'Noto Sans CJK SC', 'PingFang SC', 'Microsoft YaHei', sans-serif" font-size="14">0.45</text>
<line x1="85" y1="230.0" x2="90" y2="230.0" stroke="#333"/>
<line x1="90" y1="230.0" x2="965" y2="230.0" stroke="#eee"/>
<text x="80" y="234.0" text-anchor="end" font-family="Arial, 'Noto Sans CJK SC', 'PingFang SC', 'Microsoft YaHei', sans-serif" font-size="14">0.67</text>
<line x1="85" y1="155.0" x2="90" y2="155.0" stroke="#333"/>
<line x1="90" y1="155.0" x2="965" y2="155.0" stroke="#eee"/>
<text x="80" y="159.0" text-anchor="end" font-family="Arial, 'Noto Sans CJK SC', 'PingFang SC', 'Microsoft YaHei', sans-serif" font-size="14">0.90</text>
<line x1="85" y1="80.0" x2="90" y2="80.0" stroke="#333"/>
<line x1="90" y1="80.0" x2="965" y2="80.0" stroke="#eee"/>
<text x="80" y="84.0" text-anchor="end" font-family="Arial, 'Noto Sans CJK SC', 'PingFang SC', 'Microsoft YaHei', sans-serif" font-size="14">1.12</text>
<rect x="123.2" y="430.2" width="108.5" height="24.8" fill="#9E9E9E" rx="4"/>
<text x="177.5" y="422.2" text-anchor="middle" font-family="Arial, 'Noto Sans CJK SC', 'PingFang SC', 'Microsoft YaHei', sans-serif" font-size="15" font-weight="700">0.074</text>
<text x="177.5" y="483.0" text-anchor="middle" font-family="Arial, 'Noto Sans CJK SC', 'PingFang SC', 'Microsoft YaHei', sans-serif" font-size="14">baseline</text>
<rect x="298.2" y="442.6" width="108.5" height="12.4" fill="#F58518" rx="4"/>
<text x="352.5" y="434.6" text-anchor="middle" font-family="Arial, 'Noto Sans CJK SC', 'PingFang SC', 'Microsoft YaHei', sans-serif" font-size="15" font-weight="700">0.037</text>
<text x="352.5" y="483.0" text-anchor="middle" font-family="Arial, 'Noto Sans CJK SC', 'PingFang SC', 'Microsoft YaHei', sans-serif" font-size="14">support</text>
<text x="352.5" y="501.0" text-anchor="middle" font-family="Arial, 'Noto Sans CJK SC', 'PingFang SC', 'Microsoft YaHei', sans-serif" font-size="14">shuffle</text>
<rect x="473.2" y="442.6" width="108.5" height="12.4" fill="#54A24B" rx="4"/>
<text x="527.5" y="434.6" text-anchor="middle" font-family="Arial, 'Noto Sans CJK SC', 'PingFang SC', 'Microsoft YaHei', sans-serif" font-size="15" font-weight="700">0.037</text>
<text x="527.5" y="483.0" text-anchor="middle" font-family="Arial, 'Noto Sans CJK SC', 'PingFang SC', 'Microsoft YaHei', sans-serif" font-size="14">query</text>
<text x="527.5" y="501.0" text-anchor="middle" font-family="Arial, 'Noto Sans CJK SC', 'PingFang SC', 'Microsoft YaHei', sans-serif" font-size="14">shuffle</text>
<rect x="648.2" y="442.6" width="108.5" height="12.4" fill="#72B7B2" rx="4"/>
<text x="702.5" y="434.6" text-anchor="middle" font-family="Arial, 'Noto Sans CJK SC', 'PingFang SC', 'Microsoft YaHei', sans-serif" font-size="15" font-weight="700">0.037</text>
<text x="702.5" y="483.0" text-anchor="middle" font-family="Arial, 'Noto Sans CJK SC', 'PingFang SC', 'Microsoft YaHei', sans-serif" font-size="14">support+query</text>
<text x="702.5" y="501.0" text-anchor="middle" font-family="Arial, 'Noto Sans CJK SC', 'PingFang SC', 'Microsoft YaHei', sans-serif" font-size="14">shuffle</text>
<rect x="823.2" y="120.2" width="108.5" height="334.8" fill="#000000" rx="4"/>
<text x="877.5" y="112.2" text-anchor="middle" font-family="Arial, 'Noto Sans CJK SC', 'PingFang SC', 'Microsoft YaHei', sans-serif" font-size="15" font-weight="700">1.000</text>
<text x="877.5" y="483.0" text-anchor="middle" font-family="Arial, 'Noto Sans CJK SC', 'PingFang SC', 'Microsoft YaHei', sans-serif" font-size="14">full visual</text>
<text x="877.5" y="501.0" text-anchor="middle" font-family="Arial, 'Noto Sans CJK SC', 'PingFang SC', 'Microsoft YaHei', sans-serif" font-size="14">shuffle</text>
<polyline points="177.5,132.2 352.5,126.2 527.5,126.2 702.5,126.2 877.5,231.7" fill="none" stroke="#4C78A8" stroke-width="3"/>
<circle cx="177.5" cy="132.2" r="5" fill="#4C78A8"/>
<text x="177.5" y="120.2" text-anchor="middle" font-family="Arial, 'Noto Sans CJK SC', 'PingFang SC', 'Microsoft YaHei', sans-serif" font-size="13" fill="#4C78A8">0.964</text>
<circle cx="352.5" cy="126.2" r="5" fill="#4C78A8"/>
<text x="352.5" y="114.2" text-anchor="middle" font-family="Arial, 'Noto Sans CJK SC', 'PingFang SC', 'Microsoft YaHei', sans-serif" font-size="13" fill="#4C78A8">0.982</text>
<circle cx="527.5" cy="126.2" r="5" fill="#4C78A8"/>
<text x="527.5" y="114.2" text-anchor="middle" font-family="Arial, 'Noto Sans CJK SC', 'PingFang SC', 'Microsoft YaHei', sans-serif" font-size="13" fill="#4C78A8">0.982</text>
<circle cx="702.5" cy="126.2" r="5" fill="#4C78A8"/>
<text x="702.5" y="114.2" text-anchor="middle" font-family="Arial, 'Noto Sans CJK SC', 'PingFang SC', 'Microsoft YaHei', sans-serif" font-size="13" fill="#4C78A8">0.982</text>
<circle cx="877.5" cy="231.7" r="5" fill="#4C78A8"/>
<text x="877.5" y="219.7" text-anchor="middle" font-family="Arial, 'Noto Sans CJK SC', 'PingFang SC', 'Microsoft YaHei', sans-serif" font-size="13" fill="#4C78A8">0.667</text>
<text x="960" y="102" text-anchor="end" font-family="Arial, 'Noto Sans CJK SC', 'PingFang SC', 'Microsoft YaHei', sans-serif" font-size="15" fill="#4C78A8">F1</text>
<text transform="translate(24,267.5) rotate(-90)" text-anchor="middle" font-family="Arial, 'Noto Sans CJK SC', 'PingFang SC', 'Microsoft YaHei', sans-serif" font-size="16">neg_FPR（柱） / F1（蓝线）</text>
</svg>